<?xml version="1.0" standalone="no"?>
<!DOCTYPE svg PUBLIC "-//W3C//DTD SVG 20010904//EN"
 "http://www.w3.org/TR/2001/REC-SVG-20010904/DTD/svg10.dtd">
<svg version="1.0" xmlns="http://www.w3.org/2000/svg"
 width="1000.000000pt" height="1080.000000pt" viewBox="0 0 1000.000000 1080.000000"
 preserveAspectRatio="xMidYMid meet">

<g transform="translate(0.000000,1080.000000) scale(0.100000,-0.100000)"
fill="#000000" stroke="none">
<path d="M4800 8949 c-628 -55 -1187 -315 -1630 -759 -308 -307 -535 -688
-654 -1098 -19 -64 -37 -131 -41 -148 l-6 -31 108 -12 c59 -6 117 -14 129 -16
18 -4 24 7 53 109 157 546 505 1016 981 1326 190 123 467 245 684 301 455 117
960 93 1393 -67 811 -298 1388 -1011 1518 -1871 30 -206 29 -497 -3 -688 l-7
-39 -38 46 -37 46 19 43 c10 24 28 53 40 63 30 28 26 53 -17 96 -44 44 -118
70 -199 70 l-53 0 0 50 c0 45 -3 51 -30 65 -16 8 -39 15 -52 15 -17 0 -40 22
-90 88 -65 84 -67 90 -70 151 -3 64 -3 64 -43 85 -29 15 -64 21 -131 24 l-91
4 -42 54 -42 54 25 30 c44 53 47 141 6 219 -70 139 -340 273 -608 304 l-103
11 3 106 3 105 33 3 c66 7 29 22 -52 22 -86 0 -129 -16 -59 -22 l38 -3 3 -84
3 -83 -31 26 c-42 35 -97 35 -139 1 -16 -14 -31 -36 -33 -48 -3 -19 -10 -22
-48 -24 -305 -16 -767 -75 -963 -124 -161 -40 -262 -95 -302 -164 -14 -23 -25
-49 -25 -58 0 -9 -10 -22 -22 -28 -12 -6 -42 -31 -68 -55 -34 -31 -69 -51
-134 -75 -48 -17 -108 -47 -134 -65 -26 -19 -56 -40 -67 -48 -15 -11 -242 -56
-280 -56 -3 0 -5 -22 -5 -50 0 -27 3 -50 6 -50 3 0 171 -37 372 -82 l367 -82
120 4 c66 3 296 4 510 4 558 -2 736 -23 699 -82 -14 -20 -79 -21 -402 -3 -195
11 -608 14 -567 4 231 -53 305 -71 440 -108 88 -24 221 -65 295 -90 147 -51
383 -145 377 -151 -2 -2 -53 14 -112 36 -365 136 -651 204 -2010 485 -436 90
-938 162 -1280 185 -239 16 -360 2 -391 -46 -24 -36 -14 -106 24 -157 46 -66
186 -165 358 -255 328 -173 561 -327 768 -510 96 -85 281 -290 271 -300 -2 -3
-32 21 -67 53 -95 86 -290 229 -410 301 -101 60 -320 174 -334 174 -3 0 65
-74 153 -164 386 -396 606 -702 739 -1025 22 -55 23 -56 60 -54 59 4 159 56
205 107 l42 45 50 -45 c94 -85 228 -134 326 -119 113 17 271 80 343 137 l37
29 293 -124 293 -125 195 29 c236 35 370 67 468 114 41 19 77 35 82 35 4 0 47
-23 96 -51 48 -28 123 -68 165 -89 l76 -39 249 55 c137 30 263 58 280 61 20 3
74 -9 161 -36 97 -30 147 -41 194 -41 l64 1 42 59 c120 168 255 425 328 624
148 403 191 879 119 1316 -187 1127 -1097 2006 -2230 2155 -150 20 -417 27
-554 14z m1077 -1510 c235 -32 449 -126 547 -241 48 -55 73 -137 57 -187 -6
-20 -17 -45 -25 -56 -13 -18 -15 -17 -34 21 -59 116 -167 205 -330 272 -226
92 -512 103 -1066 41 -269 -30 -650 -107 -763 -154 -31 -13 -33 -13 -33 5 0
11 16 38 36 60 65 72 191 118 439 160 186 31 443 65 600 79 146 12 481 13 572
0z m-472 -360 c66 -5 170 -21 230 -34 110 -24 110 -24 285 -10 96 8 178 15
183 15 4 0 7 -38 7 -84 l0 -84 -137 -7 c-201 -11 -191 -11 -533 -2 -451 13
-845 -9 -1150 -64 -148 -26 -333 -73 -418 -105 l-67 -26 -122 29 c-68 15 -123
31 -123 34 0 3 52 13 115 23 l115 18 0 29 c0 113 440 231 1020 272 112 8 486
6 595 -4z m1062 -374 l170 -180 6 -57 c3 -32 4 -58 2 -58 -2 0 -100 98 -219
218 l-216 217 0 65 0 65 43 -45 c24 -25 120 -126 214 -225z m-16 -168 l206
-197 7 -56 c4 -31 5 -59 2 -61 -2 -3 -121 98 -263 223 l-258 228 -3 80 -3 81
53 -51 c29 -27 146 -139 259 -247z m-69 -278 c300 -234 303 -237 296 -314 l-3
-34 -290 200 c-159 110 -300 211 -312 225 -15 17 -23 38 -23 62 0 36 22 82 40
82 4 0 136 -99 292 -221z m695 -67 c201 -237 239 -287 235 -308 -2 -14 -8 -24
-11 -22 -4 2 -112 118 -239 257 l-232 255 0 55 c0 30 2 52 4 50 2 -2 112 -131
243 -287z m17 -164 c124 -130 196 -214 194 -224 -2 -11 -77 59 -230 215 -184
187 -228 237 -228 259 l0 27 33 -35 c19 -19 123 -128 231 -242z m75 256 c64
-19 128 -72 117 -99 -6 -17 -8 -17 -29 3 -28 26 -69 42 -111 42 -30 0 -59 21
-80 58 -10 17 38 16 103 -4z m-774 -219 c216 -146 328 -215 345 -215 18 0 95
-47 236 -146 115 -80 215 -152 222 -159 12 -10 11 -19 -5 -53 l-18 -41 -375
222 c-449 266 -695 415 -721 436 -12 10 -24 39 -31 77 -12 65 -7 94 15 94 7 0
157 -97 332 -215z m829 104 c20 -16 26 -29 26 -60 0 -21 -4 -39 -9 -39 -8 0
-91 104 -91 115 0 13 50 3 74 -16z m-156 -239 c171 -164 202 -198 200 -220 -2
-14 -6 -25 -9 -25 -14 0 -439 377 -439 389 0 8 3 28 6 45 8 39 -11 54 242
-189z m-847 22 l174 -97 3 -54 c2 -29 -1 -51 -5 -50 -5 2 -89 49 -186 104
l-178 99 3 48 c2 26 6 48 9 48 4 0 85 -44 180 -98z m792 -128 c252 -208 231
-187 223 -218 -6 -26 -12 -22 -226 140 -128 97 -220 174 -220 183 0 22 11 61
17 61 3 0 95 -75 206 -166z m-171 -216 l327 -179 -16 -37 c-8 -20 -28 -63 -44
-94 l-29 -57 -82 29 c-525 180 -483 163 -507 213 -23 49 -46 202 -38 260 6 43
21 59 46 49 9 -3 163 -86 343 -184z m-2115 13 l61 -6 -136 -238 -137 -238
-158 7 c-86 3 -170 9 -186 13 l-29 6 131 239 132 238 130 -7 c71 -4 158 -10
192 -14z"/>
<path d="M4552 5536 c-17 -34 -65 -125 -106 -203 l-75 -143 62 0 62 1 108 195
c60 108 107 197 105 199 -1 1 -31 5 -64 7 l-62 4 -30 -60z"/>
<path d="M2430 6007 c0 -37 43 -247 74 -358 63 -229 188 -511 304 -684 45 -67
50 -71 116 -93 70 -23 254 -55 289 -50 16 3 12 12 -33 68 -143 177 -282 424
-369 658 l-49 131 -163 171 c-90 93 -164 170 -166 170 -2 0 -3 -6 -3 -13z"/>
<path d="M4435 4834 c-241 -137 -465 -148 -648 -31 l-56 36 -48 -32 c-99 -67
-277 -104 -443 -93 -193 14 -365 51 -439 96 l-33 21 -122 -54 c-234 -105 -421
-164 -651 -206 l-100 -18 90 -8 c120 -10 389 0 500 19 50 9 134 30 188 47 l98
32 32 -31 c84 -80 229 -149 409 -196 104 -27 347 -70 355 -63 2 3 -10 8 -28
12 -109 24 -506 203 -574 259 l-30 25 65 -19 c163 -49 276 -65 470 -64 129 1
209 6 264 17 75 16 80 16 105 -2 45 -32 103 -45 191 -45 106 1 210 27 390 99
l135 54 55 -34 c134 -81 391 -156 754 -220 l38 -6 -58 54 c-33 30 -57 57 -54
59 3 2 128 27 278 55 l272 50 128 -54 c223 -97 393 -141 667 -177 163 -22 168
-20 36 14 -247 63 -425 136 -703 286 l-159 85 -77 -29 c-103 -40 -222 -68
-411 -97 -292 -46 -238 -54 -541 75 -146 62 -269 114 -275 116 -5 1 -37 -13
-70 -32z"/>
<path d="M6515 4716 c-147 -34 -193 -48 -135 -41 120 15 355 15 474 1 72 -9
131 -14 132 -13 7 6 -283 88 -306 86 -14 -1 -88 -16 -165 -33z"/>
<path d="M7207 4653 c-108 -49 -219 -76 -394 -95 -65 -7 -107 -16 -99 -20 8
-4 65 -11 127 -14 141 -8 263 7 382 47 l89 29 64 -19 c151 -47 397 -80 464
-62 32 8 33 9 7 10 -91 3 -342 78 -459 137 -37 19 -71 34 -75 33 -5 0 -52 -21
-106 -46z"/>
<path d="M1685 3955 l-25 -24 0 -326 0 -326 25 -24 24 -25 221 0 222 0 29 29
c29 29 29 31 29 141 l0 111 -97 -3 -98 -3 -3 -57 -3 -58 -79 0 -80 0 0 215 0
215 80 0 79 0 3 -57 3 -58 95 0 95 0 3 108 c3 108 3 108 -27 137 l-29 30 -222
0 -221 0 -24 -25z"/>
<path d="M2390 3605 l0 -375 100 0 100 0 0 121 0 120 42 -3 41 -3 46 -117 45
-118 93 0 c51 0 93 3 93 8 0 4 -20 57 -44 117 l-44 110 29 8 c55 15 59 32 59
255 0 202 0 203 -25 227 l-24 25 -256 0 -255 0 0 -375z m370 115 l0 -100 -85
0 -85 0 0 100 0 100 85 0 85 0 0 -100z"/>
<path d="M3150 3634 l0 -346 29 -29 29 -29 222 0 221 0 24 25 25 24 0 351 0
350 -95 0 -95 0 0 -295 0 -295 -79 0 c-62 0 -80 3 -85 16 -3 8 -5 141 -3 295
l2 279 -97 0 -98 0 0 -346z"/>
<path d="M3920 3605 l0 -375 95 0 95 0 0 375 0 375 -95 0 -95 0 0 -375z"/>
<path d="M4335 3955 c-25 -24 -25 -27 -25 -200 l0 -177 29 -29 c29 -29 31 -29
145 -29 l116 0 0 -65 0 -65 -145 0 -145 0 0 -80 0 -80 214 0 c213 0 215 0 243
24 l28 24 0 181 c0 234 7 225 -170 229 l-125 4 0 64 0 63 143 3 142 3 3 78 3
77 -216 0 c-216 0 -216 0 -240 -25z"/>
<path d="M4990 3605 l0 -375 245 0 245 0 0 80 0 80 -150 0 -150 0 0 70 0 70
130 0 130 0 0 80 0 80 -130 0 -130 0 0 65 0 65 150 0 150 0 0 80 0 80 -245 0
-245 0 0 -375z"/>
<path d="M5953 3956 l-28 -24 -3 -159 c-4 -179 6 -225 53 -243 15 -6 76 -10
136 -10 l110 0 -3 -62 -3 -63 -147 -3 -148 -3 0 -79 0 -80 220 0 221 0 24 25
c25 24 25 27 25 199 0 96 -3 182 -6 191 -13 33 -59 45 -174 45 l-110 0 0 65 0
65 140 0 140 0 0 80 0 80 -209 0 c-207 0 -210 0 -238 -24z"/>
<path d="M6610 3605 l0 -375 95 0 95 0 0 150 0 150 90 0 90 0 0 -150 0 -150
100 0 100 0 0 375 0 375 -100 0 -100 0 0 -145 0 -145 -90 0 -90 0 0 145 0 145
-95 0 -95 0 0 -375z"/>
<path d="M7390 3605 l0 -376 95 3 95 3 3 373 2 372 -97 0 -98 0 0 -375z"/>
<path d="M7800 3605 l0 -375 95 0 94 0 3 98 3 97 150 3 c210 4 195 -17 195
274 l0 229 -25 24 -24 25 -246 0 -245 0 0 -375z m350 100 l0 -115 -80 0 -80 0
0 115 0 115 80 0 80 0 0 -115z"/>
<path d="M2993 2962 c-18 -12 -20 -302 -1 -313 21 -14 192 -11 206 3 7 7 12
34 12 60 l0 48 -40 0 c-36 0 -40 -2 -40 -25 0 -22 -4 -25 -35 -25 l-35 0 0 95
0 95 35 0 c31 0 35 -3 35 -25 0 -22 4 -25 40 -25 l40 0 0 50 c0 38 -4 52 -19
60 -23 12 -180 13 -198 2z"/>
<path d="M3608 2959 c-16 -9 -18 -27 -18 -152 0 -98 4 -147 12 -155 15 -15
181 -16 209 -2 17 10 19 23 19 153 0 98 -4 147 -12 155 -15 15 -185 16 -210 1z
m142 -154 l0 -95 -40 0 -40 0 0 95 0 95 40 0 40 0 0 -95z"/>
<path d="M4220 2805 l0 -166 38 3 37 3 0 83 c0 45 3 82 6 82 4 0 17 -25 29
-55 31 -75 50 -74 81 8 l24 62 3 -92 3 -93 39 0 40 0 0 165 0 165 -44 0 -43 0
-29 -75 c-16 -41 -31 -75 -34 -75 -3 0 -18 33 -35 73 l-30 72 -42 3 -43 3 0
-166z"/>
<path d="M4917 2963 c-4 -3 -7 -78 -7 -165 l0 -158 40 0 40 0 0 45 0 45 70 0
c86 0 90 6 90 124 0 113 -3 116 -129 116 -54 0 -101 -3 -104 -7z m151 -115 l3
-48 -40 0 -41 0 0 51 0 50 38 -3 c37 -3 37 -3 40 -50z"/>
<path d="M5535 2954 c-13 -13 -15 -39 -13 -162 l3 -147 37 -3 c37 -3 37 -3 40
40 3 45 2 44 63 39 11 -1 15 -13 15 -41 l0 -40 40 0 40 0 0 153 c0 106 -4 157
-12 165 -19 19 -193 16 -213 -4z m145 -110 l0 -55 -37 3 c-36 3 -38 5 -41 42
-5 55 2 66 43 66 l35 0 0 -56z"/>
<path d="M6154 2957 c-2 -7 -3 -80 -2 -162 l3 -150 37 -3 37 -3 3 88 3 88 45
-85 c43 -82 46 -85 83 -88 l37 -3 0 165 0 166 -35 0 -35 0 0 -87 c0 -53 -4
-83 -9 -77 -5 5 -28 44 -51 87 -40 73 -43 77 -76 77 -19 0 -37 -6 -40 -13z"/>
<path d="M6787 2964 c-11 -11 -8 -183 3 -205 7 -12 21 -19 40 -19 27 0 29 -2
32 -47 3 -47 3 -48 40 -51 l37 -3 3 48 c3 45 5 48 33 51 17 2 34 7 38 11 5 5
8 55 9 112 l0 104 -39 0 -38 0 -3 -78 -3 -78 -37 3 -37 3 -1 75 -1 75 -34 3
c-19 2 -38 0 -42 -4z"/>
<path d="M0 400 l0 -400 5000 0 5000 0 0 400 0 400 -5000 0 -5000 0 0 -400z
m2192 123 c23 -20 23 -57 1 -74 -15 -11 -16 -11 -5 1 27 31 11 72 -33 83 -19
4 -19 5 -1 6 11 0 28 -6 38 -16z m-69 -8 c-3 -9 -8 -14 -10 -11 -3 3 -2 9 2
15 9 16 15 13 8 -4z m-1760 -114 c22 -61 43 -108 47 -104 4 4 24 56 45 116 21
59 42 107 47 107 11 0 9 -5 -42 -149 -23 -64 -44 -107 -53 -109 -15 -3 -17 0
-67 143 -15 44 -31 88 -36 99 -5 13 -3 17 6 14 8 -2 32 -55 53 -117z m517 89
c0 -23 4 -30 20 -30 11 0 20 -4 20 -10 0 -5 -10 -10 -21 -10 -20 0 -21 -4 -17
-71 3 -55 8 -74 23 -85 23 -17 14 -29 -13 -15 -11 6 -22 25 -26 42 -10 51 -7
209 4 209 6 0 10 -13 10 -30z m515 16 c25 -11 33 -19 29 -30 -7 -19 -5 -19
-40 -1 -36 18 -55 19 -78 2 -28 -21 -9 -45 49 -62 87 -25 108 -74 54 -127 -29
-29 -33 -30 -90 -25 -68 6 -72 8 -64 29 5 13 12 14 40 5 50 -15 100 1 100 33
0 16 -8 28 -25 36 -87 40 -105 51 -108 67 -14 70 53 106 133 73z m105 -16 c0
-25 4 -30 25 -30 16 0 25 -6 25 -15 0 -9 -9 -15 -25 -15 -24 0 -25 -3 -25 -60
0 -55 2 -62 25 -72 14 -6 25 -15 25 -20 0 -18 -31 -20 -55 -4 -24 16 -25 20
-25 131 0 96 3 115 15 115 10 0 15 -10 15 -30z m482 -32 l3 -62 36 32 c20 18
45 32 55 32 14 0 9 -9 -21 -40 l-39 -40 42 -60 c40 -57 41 -60 20 -60 -16 0
-32 14 -53 45 -16 25 -33 45 -37 45 -5 0 -8 -20 -8 -45 0 -38 -3 -45 -20 -45
-19 0 -20 7 -20 130 0 122 1 130 20 130 16 0 19 -8 22 -62z m193 30 c1 -20 -2
-24 -11 -17 -8 7 -14 6 -17 -3 -3 -7 -6 2 -6 20 -1 27 3 33 17 30 11 -2 17
-13 17 -30z m-44 -35 c13 -16 12 -17 -3 -4 -17 13 -22 21 -14 21 2 0 10 -8 17
-17z m-1502 -19 c12 -15 21 -40 21 -55 0 -29 0 -29 -65 -29 -72 0 -83 -12 -44
-51 17 -17 30 -20 65 -16 43 4 59 -5 28 -17 -45 -17 -106 3 -123 41 -45 98 56
206 118 127z m191 16 c17 -11 10 -13 -40 -10 -47 2 -75 -28 -75 -80 0 -55 26
-80 82 -80 27 0 42 -4 38 -10 -9 -15 -78 -12 -102 5 -50 35 -50 135 0 170 24
17 74 20 97 5z m265 -13 c20 -16 28 -35 32 -69 5 -42 3 -50 -25 -78 -41 -41
-83 -41 -124 0 -28 28 -30 36 -25 78 9 82 84 119 142 69z m85 7 c0 -14 2 -14
22 0 24 17 38 20 38 9 0 -5 -14 -16 -30 -25 -29 -17 -30 -19 -30 -93 0 -43 -4
-75 -10 -75 -6 0 -10 40 -10 100 0 60 4 100 10 100 6 0 10 -7 10 -16z m537 1
c30 -21 44 -75 32 -120 -25 -88 -143 -88 -168 0 -20 72 20 135 84 135 17 0 40
-7 52 -15z m198 -5 c0 -10 -8 -14 -27 -12 -58 6 -91 -42 -67 -100 11 -28 36
-40 74 -35 12 1 20 -4 20 -13 0 -19 -48 -25 -85 -10 -63 26 -68 148 -6 179 31
15 91 9 91 -9z m5404 -83 c8 -26 17 -47 21 -47 4 0 13 21 21 47 8 25 20 48 26
50 13 5 -22 -113 -38 -131 -12 -14 -18 -5 -45 69 -16 44 -20 65 -12 63 7 -3
19 -26 27 -51z m638 38 c2 -6 -9 -11 -23 -10 -39 0 -42 -23 -5 -36 34 -12 49
-43 31 -64 -13 -16 -38 -19 -64 -9 -27 10 -18 22 17 20 38 -1 43 19 8 37 -36
18 -48 42 -31 62 14 17 61 17 67 0z m333 -20 c0 -35 16 -47 26 -20 4 8 13 15
22 15 13 0 13 -3 -2 -19 -16 -18 -16 -21 -1 -50 9 -18 11 -31 5 -31 -6 0 -16
11 -22 25 -6 14 -15 25 -20 25 -4 0 -8 -11 -8 -25 0 -14 -4 -25 -10 -25 -6 0
-10 30 -10 70 0 40 4 70 10 70 6 0 10 -16 10 -35z m580 32 c0 -4 -34 -104 -45
-136 -3 -8 -8 -11 -11 -8 -8 7 38 147 48 147 4 0 8 -2 8 -3z m98 -9 c21 -21
13 -45 -25 -77 l-38 -30 43 -1 c23 0 42 -4 42 -10 0 -5 -22 -10 -50 -10 -62 0
-65 15 -14 63 42 40 39 62 -8 53 -26 -5 -29 -4 -18 9 15 18 51 20 68 3z m104
-5 c39 -35 8 -122 -44 -123 -10 0 -18 5 -18 10 0 6 9 10 20 10 10 0 24 10 31
22 10 18 9 20 -6 15 -24 -10 -55 10 -55 36 0 44 38 61 72 30z m110 0 c39 -35
8 -122 -44 -123 -10 0 -18 5 -18 10 0 6 9 10 20 10 10 0 24 10 31 22 10 18 9
20 -6 15 -24 -10 -55 10 -55 36 0 44 38 61 72 30z m118 -2 c-5 -11 -15 -23
-20 -26 -6 -4 -1 -14 12 -25 20 -15 21 -21 10 -44 -11 -26 -34 -32 -66 -20
-28 11 -17 24 14 18 22 -5 31 -2 36 11 6 16 -3 28 -31 39 -6 2 -5 9 3 17 18
19 15 29 -8 29 -11 0 -20 5 -20 10 0 6 18 10 40 10 37 0 40 -2 30 -19z m114
-3 c44 -63 -17 -154 -68 -102 -9 9 -16 32 -16 54 0 64 52 94 84 48z m86 -38
c0 -33 4 -60 10 -60 6 0 10 -4 10 -10 0 -5 -13 -10 -30 -10 -16 0 -30 5 -30
10 0 6 5 10 10 10 6 0 10 20 10 45 0 38 -2 43 -17 38 -16 -6 -16 -4 1 15 29
34 36 27 36 -38z m130 55 c0 -6 -60 -127 -66 -134 -2 -2 -7 -2 -10 1 -3 3 6
29 20 57 14 28 26 53 26 56 0 3 -13 5 -30 5 -16 0 -30 5 -30 10 0 6 20 10 45
10 25 0 45 -2 45 -5z m100 0 c0 -6 -60 -127 -66 -134 -2 -2 -7 -2 -10 1 -3 3
6 29 20 57 14 28 26 53 26 56 0 3 -13 5 -30 5 -16 0 -30 5 -30 10 0 6 20 10
45 10 25 0 45 -2 45 -5z m-2070 -40 c9 -10 9 -15 1 -15 -15 0 -14 -57 2 -63 6
-2 9 -8 4 -13 -19 -20 -43 38 -38 94 1 16 16 15 31 -3z m360 0 c9 -10 9 -15 1
-15 -15 0 -14 -57 2 -63 6 -2 9 -7 6 -11 -15 -17 -37 8 -41 47 -7 58 5 74 32
42z m-532 -7 c23 -23 13 -38 -24 -38 -46 0 -41 -23 7 -30 27 -4 30 -7 16 -13
-28 -11 -44 -9 -61 9 -32 31 -14 84 29 84 12 0 26 -5 33 -12z m117 3 c3 -5 -9
-11 -27 -13 -28 -2 -33 -7 -33 -28 0 -21 5 -26 33 -28 36 -4 34 -22 -3 -22
-28 0 -55 24 -55 50 0 37 67 69 85 41z m169 -7 c21 -20 20 -43 -1 -66 -20 -22
-46 -23 -67 -2 -31 30 -9 84 34 84 10 0 26 -7 34 -16z m86 6 c0 -4 -7 -10 -15
-14 -9 -3 -15 -19 -15 -41 0 -19 -4 -35 -10 -35 -5 0 -10 22 -10 49 0 45 2 49
25 49 14 0 25 -4 25 -8z m274 -6 c21 -20 20 -43 -1 -66 -20 -22 -46 -23 -67
-2 -31 30 -9 84 34 84 10 0 26 -7 34 -16z m113 9 c14 -6 10 -9 -17 -13 -29 -4
-35 -9 -35 -30 0 -21 5 -26 33 -28 36 -4 34 -22 -3 -22 -28 0 -55 24 -55 50 0
22 25 50 45 50 7 0 22 -3 32 -7z m250 0 c14 -6 10 -9 -17 -13 -29 -4 -35 -9
-35 -30 0 -21 5 -26 33 -28 36 -4 34 -22 -3 -22 -28 0 -55 24 -55 50 0 22 25
50 45 50 7 0 22 -3 32 -7z m107 -9 c31 -30 9 -84 -34 -84 -24 0 -50 26 -50 50
0 24 26 50 50 50 10 0 26 -7 34 -16z m113 4 c7 -5 14 -5 18 2 10 16 42 12 49
-6 10 -25 7 -84 -4 -84 -5 0 -10 18 -10 41 0 33 -3 40 -17 37 -13 -2 -19 -14
-21 -41 -4 -50 -22 -47 -22 4 0 36 -2 40 -22 37 -19 -2 -24 -10 -26 -40 -5
-55 -22 -46 -22 10 0 48 0 49 33 49 17 0 37 -4 44 -9z m-327 -78 c0 -5 -4 -10
-10 -10 -5 0 -10 5 -10 10 0 6 5 10 10 10 6 0 10 -4 10 -10z"/>
<path d="M2150 500 c0 -5 5 -10 10 -10 6 0 10 5 10 10 0 6 -4 10 -10 10 -5 0
-10 -4 -10 -10z"/>
<path d="M536 418 c-28 -39 -21 -48 39 -48 59 0 67 9 45 51 -15 27 -64 25 -84
-3z"/>
<path d="M986 424 c-50 -50 -21 -144 44 -144 48 0 80 50 66 104 -13 53 -75 75
-110 40z"/>
<path d="M1616 408 c-32 -46 -8 -118 39 -118 28 0 55 34 55 70 0 36 -27 70
-55 70 -13 0 -31 -10 -39 -22z"/>
<path d="M9014 375 c-4 -9 -2 -21 4 -27 15 -15 44 -1 40 19 -4 23 -36 29 -44
8z"/>
<path d="M9124 375 c-4 -9 -2 -21 4 -27 15 -15 44 -1 40 19 -4 23 -36 29 -44
8z"/>
<path d="M9344 365 c-9 -38 3 -75 26 -75 13 0 22 9 26 25 9 38 -3 75 -26 75
-13 0 -22 -9 -26 -25z"/>
<path d="M7425 340 c-4 -6 5 -10 19 -10 14 0 26 5 26 10 0 6 -9 10 -19 10 -11
0 -23 -4 -26 -10z"/>
<path d="M7704 336 c-10 -26 4 -48 28 -44 17 2 23 10 23 28 0 18 -6 26 -23 28
-13 2 -25 -3 -28 -12z"/>
<path d="M8064 336 c-10 -26 4 -48 28 -44 17 2 23 10 23 28 0 18 -6 26 -23 28
-13 2 -25 -3 -28 -12z"/>
<path d="M8534 336 c-10 -26 4 -48 28 -44 17 2 23 10 23 28 0 18 -6 26 -23 28
-13 2 -25 -3 -28 -12z"/>
</g>
</svg>
